HIERARCHY
ROOT hip
{
	OFFSET 0.000000 0.000000 0.000000 
	CHANNELS 6 Xposition Yposition Zposition Xrotation Zrotation Yrotation
	JOINT abdomen
	{
		OFFSET 0.000000 3.402643 0.000000 
		CHANNELS 3 Xrotation Zrotation Yrotation
		JOINT chest
		{
			OFFSET 0.000000 8.438565 -0.680529 
			CHANNELS 3 Xrotation Zrotation Yrotation
			JOINT neck
			{
				OFFSET 0.000000 10.207942 -0.272212 
				CHANNELS 3 Xrotation Zrotation Yrotation
				JOINT head
				{
					OFFSET 0.000000 3.130431 0.000000 
					CHANNELS 3 Xrotation Zrotation Yrotation
					End Site
					{
						OFFSET 0.000000 3.130435 0.000000 
					}
				}
			}
			JOINT lCollar
			{
				OFFSET 3.470700 6.669187 -0.816635 
				CHANNELS 3 Yrotation Zrotation Xrotation
				JOINT lShldr
				{
					OFFSET 3.198488 0.000000 0.000000 
					CHANNELS 3 Zrotation Yrotation Xrotation
					JOINT lForeArm
					{
						OFFSET 10.139888 0.000000 0.000000 
						CHANNELS 3 Yrotation Zrotation Xrotation
						JOINT lHand
						{
							OFFSET 8.370511 0.000000 0.000000 
							CHANNELS 3 Zrotation Yrotation Xrotation
							End Site
							{
								OFFSET 4.083176 0.000000 0.000000 
							}
						}
					}
				}
			}
			JOINT rCollar
			{
				OFFSET -3.470700 6.669187 -0.816635 
				CHANNELS 3 Yrotation Zrotation Xrotation
				JOINT rShldr
				{
					OFFSET -3.198488 0.000000 0.000000 
					CHANNELS 3 Zrotation Yrotation Xrotation
					JOINT rForeArm
					{
						OFFSET -10.139888 0.000000 0.000000 
						CHANNELS 3 Yrotation Zrotation Xrotation
						JOINT rHand
						{
							OFFSET -8.370511 0.000000 0.000000 
							CHANNELS 3 Zrotation Yrotation Xrotation
							End Site
							{
								OFFSET -4.083176 0.000000 0.000000 
							}
						}
					}
				}
			}
		}
	}
	JOINT lThigh
	{
		OFFSET 5.308129 -1.633274 1.361059 
		CHANNELS 3 Xrotation Zrotation Yrotation
		JOINT lShin
		{
			OFFSET -2.041588 -20.007561 0.000000 
			CHANNELS 3 Xrotation Zrotation Yrotation
			JOINT lFoot
			{
				OFFSET 0.000000 -19.190928 -1.224953 
				CHANNELS 3 Xrotation Yrotation Zrotation
				End Site
				{
					OFFSET 0.000000 -2.449906 4.627600 
				}
			}
		}
	}
	JOINT rThigh
	{
		OFFSET -5.308129 -1.633274 1.361059 
		CHANNELS 3 Xrotation Zrotation Yrotation
		JOINT rShin
		{
			OFFSET 2.041588 -20.007561 0.000000 
			CHANNELS 3 Xrotation Zrotation Yrotation
			JOINT rFoot
			{
				OFFSET 0.000000 -19.190928 -1.224953 
				CHANNELS 3 Xrotation Yrotation Zrotation
				End Site
				{
					OFFSET 0.000000 -2.449906 4.627600 
				}
			}
		}
	}
}
MOTION
Frames: 11
Frame Time: 0.033333
18.333296 46.195518 57.926815 -5.926394 3.050049 8.697661 31.788553 -1.969698 -1.186746 -20.839844 0.000000 0.000000 7.186145 12.342038 3.168124 -2.520846 -1.255050 0.218350 -4.754609 -0.109183 -0.002653 -64.407333 19.158672 0.785125 -44.756042 -22.782574 22.578712 7.046478 -3.780287 0.748415 4.754609 0.109183 -0.002672 90.007637 -13.940750 -15.195387 22.795141 -0.459484 13.924169 12.342812 9.091676 22.983574 -7.020528 17.240366 11.567828 23.872593 -6.410832 -4.200072 -2.148592 -10.857298 -14.902784 0.144248 -20.002613 -14.150455 25.661863 9.712670 -3.431363 -14.657620 -1.623334 4.843401 
18.219929 46.048805 57.591747 -4.969987 3.453794 10.979680 32.316994 -2.003214 -1.436838 -20.839844 0.000000 0.000000 5.911374 12.647654 2.381788 -2.520846 -1.255050 0.218350 -4.754609 -0.109183 -0.002653 -64.815750 16.848915 2.456599 -43.907276 -23.461428 23.983747 4.978034 -3.843982 1.142641 4.754609 0.109183 -0.002672 91.675652 -15.835450 -14.950958 27.097546 0.001902 15.458335 14.776889 7.209386 22.846088 -10.086954 17.926905 12.102069 25.863894 -7.021907 -4.929515 -1.137444 -12.777307 -18.049854 -1.182403 -20.768332 -14.976964 27.269466 9.944855 -4.092448 -15.352351 -1.900495 5.399065 
18.201859 45.977730 57.323181 -4.197813 3.613353 12.547994 32.725620 -1.928347 -0.898336 -20.839844 0.000000 0.000000 5.031905 12.936684 1.564714 -2.520846 -1.255050 0.218350 -4.754609 -0.109183 -0.002653 -65.530121 14.659863 3.939706 -43.105167 -23.900833 25.702278 3.361773 -3.946811 2.302025 4.754609 0.109183 -0.002672 91.822044 -16.668482 -14.698606 29.531996 0.517794 17.164703 17.224985 5.334052 23.777283 -11.970948 18.559910 12.313302 26.209284 -7.181563 -4.348289 0.423894 -12.338273 -21.611155 -2.129168 -21.250334 -15.679309 28.067272 9.945104 -4.675723 -15.375063 -1.912868 5.568685 
18.248817 46.053879 57.126709 -3.845762 3.663629 13.152833 32.770382 -1.886613 -0.066647 -20.839844 0.000000 0.000000 5.427019 13.154449 1.194459 -2.520846 -1.255050 0.218350 -4.754609 -0.109183 -0.002653 -66.289223 13.311574 4.909519 -42.456139 -24.084154 27.082876 2.516275 -3.738803 3.381432 4.754609 0.109183 -0.002672 90.699501 -16.496222 -14.140077 30.482773 0.957785 18.918718 19.310759 3.211102 24.966955 -12.408372 19.024197 12.200586 25.459589 -6.816286 -2.321592 -0.729150 -8.608201 -20.275446 -2.325283 -21.225698 -15.969664 27.437397 9.652987 -5.185592 -14.638558 -1.913187 5.666209 
18.354315 46.199074 56.976433 -3.864433 3.449190 13.019526 32.587811 -1.804441 0.628236 -20.839844 0.000000 0.000000 6.790000 13.197405 1.386564 -2.520846 -1.255050 0.218350 -4.754609 -0.109183 -0.002653 -66.094688 12.569450 5.608885 -42.168991 -24.549778 27.220362 1.734687 -3.052878 2.698764 4.754609 0.109183 -0.002672 88.972557 -14.621543 -12.791615 30.081633 1.219379 20.439840 19.959763 1.599821 26.064766 -11.267687 19.613338 12.047296 22.655397 -6.106388 0.637820 -1.349734 -3.543968 -16.682058 -2.208121 -20.451414 -15.299721 26.023571 8.960866 -5.527021 -13.453843 -2.544811 5.663278 
18.566877 46.291473 56.859165 -4.097719 3.078064 12.641236 32.564690 -1.727333 0.882269 -20.839844 0.000000 0.000000 7.977601 13.342399 2.057255 -2.520846 -1.255050 0.218350 -4.754609 -0.109183 -0.002653 -64.635109 11.723003 6.307582 -42.238880 -25.409418 26.398521 0.307669 -2.106767 0.550695 4.754609 0.109183 -0.002672 87.451424 -10.332841 -10.445354 28.722872 1.218861 21.153692 18.048637 1.509222 26.774258 -9.129476 20.111223 12.148814 18.695421 -5.322018 3.557662 -1.071349 1.100901 -12.817225 -2.022192 -19.715412 -14.757193 24.922989 8.225004 -5.733221 -12.120070 -2.716349 5.135083 
18.902809 46.256958 56.752552 -4.320763 2.570808 12.227900 32.575371 -1.576181 0.592800 -20.839844 0.000000 0.000000 8.306428 13.749938 3.256741 -2.520846 -1.255050 0.218350 -4.754609 -0.109183 -0.002653 -62.277035 10.351192 6.939262 -42.526184 -26.320980 25.071083 -1.151783 -1.195273 -2.130844 4.754609 0.109183 -0.002672 86.731194 -4.378229 -7.342638 28.001022 1.191421 21.019548 14.622787 2.600764 26.642265 -6.708746 20.406742 13.691825 14.781734 -4.346037 6.140181 -0.544875 2.440224 -11.024691 -2.442077 -19.334871 -14.492975 25.307087 7.621444 -5.640113 -12.003448 -2.491351 4.411388 
19.321140 46.106171 56.602779 -4.289692 1.986611 11.853058 32.498341 -1.299195 -0.135848 -20.839844 0.000000 0.000000 7.828835 14.340433 4.427372 -2.520846 -1.255050 0.218350 -4.754609 -0.109183 -0.002653 -59.709370 8.015520 7.229895 -42.973396 -26.668379 23.506765 -1.731881 -0.189416 -4.325711 4.754609 0.109183 -0.002672 86.706810 1.594973 -3.842299 30.712116 1.663781 20.283539 12.494916 3.071534 24.928396 -5.048756 20.667305 15.306158 12.020716 -3.942204 7.726174 0.583134 2.034877 -12.627378 -3.564774 -19.157663 -14.097255 26.469053 6.986802 -5.388212 -12.153487 -2.473122 4.071301 
19.787645 45.910713 56.387524 -3.927425 1.656260 11.692994 32.282120 -1.149063 -1.178716 -20.839844 0.000000 0.000000 7.068996 15.193177 5.295052 -2.520846 -1.255050 0.218350 -4.754609 -0.109183 -0.002653 -57.307827 4.549533 6.968541 -43.319794 -26.016991 21.736509 -1.229089 0.848082 -5.780279 4.754609 0.109183 -0.002672 87.028305 7.018682 -0.065699 36.072300 2.856228 19.695086 11.635592 3.264863 22.735657 -5.078408 21.065897 16.050428 11.629055 -4.653575 8.424706 2.291309 1.681505 -14.846122 -5.331899 -19.347279 -13.294944 28.092920 6.366406 -4.973981 -12.371225 -3.223490 3.808055 
20.283598 45.766022 56.120995 -3.390142 1.686498 11.706794 31.978785 -1.393381 -2.157535 -20.839844 0.000000 0.000000 6.324792 16.295925 5.789053 -2.520846 -1.255050 0.218350 -4.754609 -0.109183 -0.002653 -54.862724 0.109098 6.329191 -43.335732 -24.692656 19.909319 0.200350 1.566082 -6.824296 4.754609 0.109183 -0.002672 87.546165 11.847512 3.993543 42.731102 4.896825 18.937073 10.602461 3.936826 19.885735 -6.620763 21.456234 16.418022 13.626026 -6.101833 8.492550 3.129408 1.070199 -14.448786 -7.147803 -20.091494 -12.809157 29.645681 6.063787 -4.592377 -12.462195 -3.858115 2.763223 
20.789959 45.724388 55.824509 -2.979692 1.609151 11.566674 31.917894 -1.755624 -2.177199 -20.839844 0.000000 0.000000 5.494935 16.923717 5.989593 -2.520846 -1.255050 0.218350 -4.754609 -0.109183 -0.002653 -52.666771 -5.204623 5.209570 -43.195824 -22.701815 17.706808 1.544622 1.744344 -7.711197 4.754609 0.109183 -0.002672 87.366875 16.077650 8.072176 50.993908 8.201038 17.101145 9.094145 4.113842 15.375495 -7.684916 21.359230 16.339090 14.593932 -6.874162 8.587656 3.870495 0.861652 -13.975649 -8.631765 -21.302534 -13.272644 30.609079 6.194000 -3.900950 -9.602716 -2.806048 3.437129 
